# xmcd
#
# Track frame offsets: 
#        150
#        15074
#        34563
#        50376
#        74720
#        85249
#        104037
#        122483
#        138278
#        155784
#        177879
#        196418
#        215513
#
# Disc length: 3016 seconds
#
# Revision: 0
# Processed by: cddbd v1.5.2PL0 Copyright (c) Steve Scherf et al.
# Submitted via: ExactAudioCopy v1.3
#
DISCID=b10bc60d
DTITLE=Professor Louie and The Crowmatix - Crowin' The Blues
DYEAR=2017
DGENRE=Blues
TTITLE0=I'm Gonna Play the Honky Tonks 
TTITLE1=Prisoner of Your Sound 
TTITLE2=High Heel Sneakers 
TTITLE3=Love Is Killing Me 
TTITLE4=Blues and Good News 
TTITLE5=Fine Little Mama 
TTITLE6=I Finally Got You 
TTITLE7=Why Did You Do That to Me 
TTITLE8=Confessin' the Blues 
TTITLE9=Bright Lights, Big City 
TTITLE10=That's Alright 
TTITLE11=I'm on My Way 
TTITLE12=Blues for Buckwheat
EXTD=
EXTT0=
EXTT1=
EXTT2=
EXTT3=
EXTT4=
EXTT5=
EXTT6=
EXTT7=
EXTT8=
EXTT9=
EXTT10=
EXTT11=
EXTT12=
PLAYORDER=
